<?xml version="1.0" standalone="no"?>
<svg xmlns:xlink="http://www.w3.org/1999/xlink" id="wave" style="transform:rotate(0deg); transition: 0.3s" viewBox="0 0 1440 490" version="1.1" xmlns="http://www.w3.org/2000/svg"><defs><linearGradient id="sw-gradient-0" x1="0" x2="0" y1="1" y2="0"><stop stop-color="rgba(62, 220.311, 243, 1)" offset="0%"/><stop stop-color="rgba(11, 75.617, 255, 1)" offset="100%"/></linearGradient></defs><path style="transform:translate(0, 0px); opacity:1" fill="url(#sw-gradient-0)" d="M0,147L40,138.8C80,131,160,114,240,114.3C320,114,400,131,480,147C560,163,640,180,720,196C800,212,880,229,960,220.5C1040,212,1120,180,1200,138.8C1280,98,1360,49,1440,32.7C1520,16,1600,33,1680,89.8C1760,147,1840,245,1920,245C2000,245,2080,147,2160,130.7C2240,114,2320,180,2400,228.7C2480,278,2560,310,2640,343C2720,376,2800,408,2880,359.3C2960,310,3040,180,3120,138.8C3200,98,3280,147,3360,138.8C3440,131,3520,65,3600,89.8C3680,114,3760,229,3840,228.7C3920,229,4000,114,4080,114.3C4160,114,4240,229,4320,269.5C4400,310,4480,278,4560,261.3C4640,245,4720,245,4800,220.5C4880,196,4960,147,5040,130.7C5120,114,5200,131,5280,155.2C5360,180,5440,212,5520,212.3C5600,212,5680,180,5720,163.3L5760,147L5760,490L5720,490C5680,490,5600,490,5520,490C5440,490,5360,490,5280,490C5200,490,5120,490,5040,490C4960,490,4880,490,4800,490C4720,490,4640,490,4560,490C4480,490,4400,490,4320,490C4240,490,4160,490,4080,490C4000,490,3920,490,3840,490C3760,490,3680,490,3600,490C3520,490,3440,490,3360,490C3280,490,3200,490,3120,490C3040,490,2960,490,2880,490C2800,490,2720,490,2640,490C2560,490,2480,490,2400,490C2320,490,2240,490,2160,490C2080,490,2000,490,1920,490C1840,490,1760,490,1680,490C1600,490,1520,490,1440,490C1360,490,1280,490,1200,490C1120,490,1040,490,960,490C880,490,800,490,720,490C640,490,560,490,480,490C400,490,320,490,240,490C160,490,80,490,40,490L0,490Z"/></svg>